PathFileType	3	(X/Y/Z)	C:\Users\koon_\Desktop\
DataRate	CameraRate	NumFrames	NumMarkers	Units	OrigDataRate	OrigDataStartFrame	OrigNumFrames
100.0	100.0	10	27	mm	100.0	1513	2016	
Frame#	Time	get:LFHD			get:RFHD			get:LBHD			get:RBHD			get:C7			get:T10			get:CLAV			get:STRN			get:RBAK			get:LSHO			get:LUPA			get:LELB			get:LFRA			get:LWRA			get:LWRB			get:LFIN			get:RSHO			get:RUPA			get:RELB			get:RFRA			get:RWRA			get:RWRB			get:RFIN			get:LASI			get:RASI			get:LPSI			get:RPSI			
		X1	Y1	Z1	X2	Y2	Z2	X3	Y3	Z3	X4	Y4	Z4	X5	Y5	Z5	X6	Y6	Z6	X7	Y7	Z7	X8	Y8	Z8	X9	Y9	Z9	X10	Y10	Z10	X11	Y11	Z11	X12	Y12	Z12	X13	Y13	Z13	X14	Y14	Z14	X15	Y15	Z15	X16	Y16	Z16	X17	Y17	Z17	X18	Y18	Z18	X19	Y19	Z19	X20	Y20	Z20	X21	Y21	Z21	X22	Y22	Z22	X23	Y23	Z23	X24	Y24	Z24	X25	Y25	Z25	X26	Y26	Z26	X27	Y27	Z27	
1513	15.12	43.614304	1534.5243	-220.52554	-97.606064	1526.9962	-218.47679	20.614672	1469.5001	-367.64346	-107.9248	1439.4401	-360.94876	-18.814598	1256.3809	-322.19421	-15.580603	1042.9901	-273.13614	-23.189436	1256.1805	-111.00056	-10.751801	1088.9674	5.419117	-85.473633	1169.0902	-321.87427	110.53767	1287.4325	-250.86346	208.06989	1160.2578	-207.17136	236.90565	967.83997	-160.45047	236.83835	867.59259	-51.557911	210.26006	793.33441	-15.359298	266.07739	781.20453	-79.626396	279.30573	736.34644	10.619826	-156.22427	1272.7115	-246.37724	-251.89566	1064.5608	-168.5311	-247.75151	938.52405	-197.46413	-269.65631	906.77527	-107.29523	-241.56741	756.38269	-58.729839	-284.33148	748.1911	-127.48856	-301.53058	695.69073	-41.84647	121.5382	893.98022	26.438227	-145.74025	877.04907	24.815172	33.497963	909.70789	-201.49419	-57.156605	907.26758	-204.64963
1514	15.13	43.019882	1539.2952	-214.51753	-98.182251	1531.6863	-212.54965	20.123877	1474.4097	-361.78036	-108.43186	1444.2383	-355.07452	-18.977215	1263.0704	-317.45465	-15.394972	1048.7953	-272.91696	-23.881916	1258.7385	-106.36802	-11.307405	1089.1924	5.969593	-85.819405	1175.7711	-318.82413	110.03767	1293.2616	-245.12651	208.32137	1166.0834	-203.20868	238.76544	973.02698	-159.72768	238.08563	871.66876	-51.637218	211.73006	796.8548	-16.461084	268.57349	785.6839	-80.0345	280.91345	740.27643	10.179976	-156.61772	1277.8999	-241.52226	-252.25195	1068.5142	-167.34477	-248.59836	942.90375	-198.48306	-269.93674	909.75671	-108.64552	-241.80266	758.86426	-62.235752	-284.82126	751.42383	-130.94994	-301.71497	697.76318	-46.118572	121.26161	894.52332	23.58964	-145.8927	877.51013	21.631031	33.549919	912.70068	-204.08064	-57.047993	910.00592	-207.34073
1515	15.14	42.471146	1543.9285	-208.38481	-98.72657	1536.2177	-206.46547	19.633514	1479.2714	-355.68942	-108.91914	1449.0261	-349.05124	-19.259188	1269.6536	-312.39258	-15.224394	1054.5956	-272.55219	-24.52354	1261.1687	-101.61147	-11.81525	1089.2501	6.6741061	-86.164055	1182.3842	-315.52878	109.60824	1298.9379	-239.17593	208.67833	1171.7893	-199.08589	240.69447	978.21136	-159.02809	239.36792	875.62103	-51.777313	213.20743	800.31158	-17.375345	270.97147	790.19275	-80.445877	282.42422	743.92841	9.3081999	-156.95695	1282.9512	-236.25853	-252.79817	1072.481	-166.10507	-249.45004	947.39551	-199.36572	-270.36597	912.81555	-110.02901	-242.06068	761.26886	-65.679008	-285.37198	754.78918	-134.37801	-301.94009	699.83643	-49.999733	121.02718	895.02795	20.722668	-145.592	877.38177	16.648146	33.611366	915.63452	-206.75246	-57.022652	912.75549	-210.12308
1516	15.15	41.893871	1548.3541	-201.94481	-99.302994	1540.5326	-200.10992	19.163391	1484.0271	-349.44034	-109.33193	1453.7107	-343.0477	-19.453487	1276.0537	-307.1492	-15.186729	1060.3832	-271.98825	-25.085461	1263.4725	-96.764656	-12.344746	1089.2754	7.2791977	-86.464127	1188.8696	-311.94278	109.17263	1304.4839	-232.94417	209.02296	1177.3606	-194.86067	242.63246	983.26306	-158.14685	240.53027	879.39789	-51.817009	214.48715	803.58862	-18.423908	273.26389	794.59003	-80.817169	284.03983	747.81116	8.6954718	-157.31963	1287.949	-230.66425	-253.34132	1076.3774	-164.55388	-250.41858	951.8103	-200.02422	-270.71982	915.83533	-110.97238	-242.41095	763.63123	-69.078049	-286.00836	758.14294	-137.55986	-302.21936	702.00952	-53.94558	120.72965	895.48181	17.731802	-145.77309	877.54962	12.996696	33.640068	918.55609	-209.47899	-56.997871	915.45441	-212.85629
1517	15.16	41.4123	1552.5854	-195.46135	-99.806618	1544.6763	-193.64125	18.77984	1488.6147	-343.05386	-109.7405	1458.1882	-336.8017	-19.723976	1282.3298	-301.52002	-15.123454	1066.1638	-271.19461	-25.611723	1265.6024	-91.720566	-12.787936	1089.1812	7.8521652	-86.914703	1195.3541	-308.13168	108.80197	1309.8213	-226.50703	209.31836	1182.7742	-190.39467	244.65807	988.18115	-157.28493	241.5201	883.01288	-51.85199	215.63882	806.70953	-19.562227	275.56912	798.93896	-81.099319	285.1731	751.51776	8.1767349	-157.6721	1292.7689	-224.93092	-253.75175	1080.1984	-162.5701	-251.41495	956.14752	-200.27689	-271.18536	918.80603	-111.79073	-242.71964	766.03772	-72.236328	-286.79016	761.49213	-140.5687	-302.59067	704.15161	-57.77457	120.41096	895.8465	14.671731	-145.95113	877.73004	9.3800926	33.591145	921.37128	-212.18669	-56.99279	918.16168	-215.73363
1518	15.17	40.93153	1556.5837	-188.86852	-100.23187	1548.5958	-187.06781	18.323452	1492.8955	-336.57767	-110.15205	1462.4163	-330.39615	-20.000975	1288.4971	-295.83759	-15.232716	1071.7866	-270.29395	-26.044247	1267.5502	-86.472862	-13.190557	1088.989	8.5870152	-87.338203	1201.6873	-304.15875	108.42123	1314.8823	-219.85825	209.62607	1187.946	-185.81834	246.67073	992.98871	-156.34048	242.44347	886.48651	-51.894688	216.71364	809.64911	-20.688063	277.73911	803.13422	-81.431656	286.57773	755.18964	7.6559982	-158.10814	1297.4381	-219.00256	-254.28307	1083.9097	-160.56429	-252.46239	960.48108	-200.37314	-271.70087	921.66693	-112.51758	-243.64893	768.32709	-73.99453	-287.6022	764.75262	-143.42857	-302.89014	706.19861	-61.37513	120.06773	896.09088	11.603379	-146.15186	877.85468	5.8888912	33.540276	924.15942	-214.86241	-57.037979	920.7843	-218.55298
1519	15.18	40.605461	1560.3341	-182.20229	-100.56156	1552.3284	-180.36241	17.946939	1496.8986	-330.04135	-110.51295	1466.4283	-323.88708	-20.270168	1294.4939	-289.9975	-15.368214	1077.3502	-269.22693	-26.495543	1269.1899	-81.132034	-13.512519	1088.6196	9.4560404	-87.924438	1207.8591	-299.99811	107.97237	1319.6866	-213.09164	209.88847	1192.8973	-181.23312	248.64061	997.64716	-155.28558	243.28722	889.75391	-51.937523	217.71812	812.41583	-21.974064	279.7486	807.10309	-81.775414	287.7106	758.56879	7.0127792	-158.49924	1301.8705	-212.86911	-254.78032	1087.3721	-157.98732	-253.44745	964.7077	-200.28412	-272.00385	924.39575	-112.71357	-243.85358	770.37952	-77.469131	-288.55432	767.99438	-146.12624	-303.22562	708.20056	-64.976677	119.71808	896.341	8.5172443	-146.43617	877.93976	1.8020337	33.44244	926.85632	-217.55635	-57.070988	923.33392	-221.39745
1520	15.19	40.317368	1563.7756	-175.4395	-100.86932	1555.8054	-173.56715	17.543043	1500.6293	-323.384	-110.89468	1470.165	-317.24149	-20.621664	1300.2023	-283.92896	-15.556546	1082.822	-268.11761	-26.845926	1270.5867	-75.806648	-13.786113	1088.061	10.362474	-88.481743	1213.9846	-295.97485	107.43891	1324.2377	-206.16159	210.10902	1197.5383	-176.52322	250.44125	1002.097	-154.30286	244.03812	892.71185	-52.128353	218.58369	814.89832	-23.354242	281.66412	810.72229	-82.281166	288.64813	761.66998	6.3026533	-158.94722	1306.0825	-206.58998	-255.22247	1090.6117	-155.06049	-254.48006	968.93359	-200.07784	-272.4278	926.9679	-113.05156	-244.15993	772.36084	-80.762192	-289.48724	771.14996	-148.72847	-303.58215	710.04968	-68.288582	119.2717	896.47662	5.4364543	-146.74207	878.00159	-1.9637882	33.300064	929.59265	-220.20906	-57.085495	925.8974	-224.29861
1521	15.2	40.101891	1566.9253	-168.71809	-101.06452	1559.0334	-166.71301	17.240805	1504.0625	-316.67889	-111.23437	1473.606	-310.33087	-21.012712	1305.6549	-277.90421	-15.742894	1088.1748	-266.90768	-27.168968	1271.6943	-70.287491	-14.08804	1087.3691	11.515142	-89.170418	1219.7838	-291.56174	106.95027	1328.4346	-199.1868	210.22668	1201.8237	-171.73337	252.11731	1006.317	-153.03601	244.82051	895.37415	-52.229828	219.35011	816.99402	-25.675882	283.43744	813.99133	-82.896484	289.53378	764.29602	5.2830243	-159.36371	1310.0035	-200.21735	-255.64287	1093.7776	-152.32187	-255.48085	972.94116	-199.60953	-272.75308	929.40009	-112.98949	-244.4734	774.29266	-83.760666	-290.39542	774.24591	-151.29337	-304.06531	711.86987	-71.813354	118.85928	896.61792	2.4142284	-147.14526	878.04041	-5.6991239	33.194759	932.35504	-222.81177	-57.09346	928.86115	-227.91472
1522	15.21	39.957817	1569.8008	-161.77208	-101.18654	1561.9928	-159.71754	16.886404	1507.2487	-309.96896	-111.5823	1476.8601	-303.53992	-21.434759	1310.7991	-271.67719	-15.964109	1093.2794	-265.62173	-27.561155	1272.4791	-64.864777	-14.485942	1086.4834	12.728595	-89.96228	1225.3519	-287.23453	106.40849	1332.2461	-192.21422	210.25462	1205.7456	-166.82855	253.59058	1010.1975	-151.70711	245.5724	897.59375	-52.533424	220.21262	818.76062	-27.343786	285.09445	816.8938	-83.695869	290.34479	766.5097	4.1085949	-159.81769	1313.6616	-193.80806	-256.07092	1096.658	-149.3587	-256.46088	976.7605	-198.93411	-272.90109	931.62329	-112.50359	-244.94572	776.08252	-86.534599	-291.23297	777.13519	-153.83754	-304.5578	713.57111	-75.307304	118.42219	896.59851	-0.58412474	-147.53557	877.99036	-9.4125662	32.995914	935.08093	-225.24515	-57.191849	931.50488	-230.69893
